<?xml version="1.0" encoding="UTF-8"?>
<!DOCTYPE svg PUBLIC "-//W3C//DTD SVG 1.1//EN" "http://www.w3.org/Graphics/SVG/1.1/DTD/svg11.dtd">
<!-- Creator: CorelDRAW X7 -->
<svg xmlns="http://www.w3.org/2000/svg" xml:space="preserve" width="2015px" height="969px" version="1.1" style="shape-rendering:geometricPrecision; text-rendering:geometricPrecision; image-rendering:optimizeQuality; fill-rule:evenodd; clip-rule:evenodd"
viewBox="0 0 20150 9690"
 xmlns:xlink="http://www.w3.org/1999/xlink">
 <defs>
  <style type="text/css">
   <![CDATA[
    .str0 {stroke:#FEFEFE;stroke-width:59.0475}
    .str1 {stroke:#FEFEFE;stroke-width:59.0475}
    .fil1 {fill:none}
    .fil12 {fill:#F5B2B6}
    .fil9 {fill:#EF7F1A}
    .fil11 {fill:#E5097F}
    .fil7 {fill:#DBE285}
    .fil10 {fill:#A8D4AF}
    .fil8 {fill:#7E71B1}
    .fil6 {fill:#008DD2}
    .fil0 {fill:#1691CE}
    .fil13 {fill:#1691CE}
    .fil4 {fill:#17597A}
    .fil3 {fill:#1A719C}
    .fil14 {fill:#5BC3F7}
    .fil5 {fill:#FF3D00}
    .fil2 {fill:#FEFEFE;fill-rule:nonzero}
   ]]>
  </style>
 </defs>
 <g id="Layer_x0020_1">
  <metadata id="CorelCorpID_0Corel-Layer"/>
  <g id="_982500016">
   <path class="fil0" d="M19718 3124c-32,-108 -295,-374 -375,-447 -389,-361 -833,-669 -1265,-975 -585,-416 -1876,-1318 -2593,-1318 -3630,0 -7259,0 -10888,0 -718,0 -2009,902 -2594,1318 -432,306 -876,614 -1265,975 -79,73 -343,339 -374,447 45,336 124,667 234,987 563,1636 1885,2881 3367,3708 1829,1019 3992,1474 6076,1474 2083,0 4246,-455 6075,-1474 1483,-827 2804,-2072 3367,-3708 110,-320 189,-651 235,-987z"/>
   <path class="fil1 str0" d="M16908 2373c-1235,2083 -3831,3518 -6833,3518 -3002,0 -5598,-1435 -6833,-3518l820 -657c1013,1845 3324,3134 6013,3134 2689,0 5000,-1289 6013,-3134l820 657z"/>
   <rect class="fil1 str1" transform="matrix(1.05661 0.313731 -0.313731 1.05661 6930.11 6008.51)" width="1000" height="1475" rx="83" ry="83"/>
   <rect class="fil1 str1" transform="matrix(0.905502 0.62843 -0.62843 0.905502 4640.64 4694.89)" width="1000" height="1475" rx="83" ry="83"/>
   <rect class="fil1 str1" transform="matrix(0.688846 0.860435 -0.860435 0.688846 2808.54 2719.74)" width="1000" height="1475" rx="83" ry="83"/>
   <rect class="fil1 str1" transform="matrix(-1.05661 0.313731 0.313731 1.05661 13219.9 6008.51)" width="1000" height="1475" rx="83" ry="83"/>
   <rect class="fil1 str1" transform="matrix(-0.905502 0.62843 0.62843 0.905502 15509.4 4694.89)" width="1000" height="1475" rx="83" ry="83"/>
   <rect class="fil1 str1" transform="matrix(-0.688846 0.860435 0.860435 0.688846 17341.5 2719.74)" width="1000" height="1475" rx="83" ry="83"/>
   <path class="fil2" d="M5586 4273c-8,13 -16,26 -23,37 -7,11 -13,21 -18,30 -4,7 -3,13 4,20l34 38 -9 18c-32,-21 -66,-44 -105,-68 -39,-25 -75,-47 -107,-66l9 -18 54 17c7,2 12,0 16,-5 6,-9 12,-19 20,-30 7,-12 15,-24 23,-38l172 -272c7,-11 14,-22 19,-31 6,-9 11,-18 16,-26 4,-6 3,-11 -1,-16l-37 -43 10 -18c31,21 65,44 104,68 39,25 75,47 107,66l-9 18 -54 -16c-6,-2 -11,-1 -15,5 -6,8 -12,16 -18,26 -6,9 -12,19 -19,30l-173 274zm166 192c-3,7 -3,13 2,17l39 38 -9 18c-32,-18 -58,-32 -78,-44 -20,-11 -47,-25 -80,-42l7 -18 55 12c7,2 12,0 15,-5 11,-19 24,-43 40,-71l154 -282c13,-24 23,-43 31,-59 3,-7 3,-12 -2,-17l-40 -39 9 -19c32,19 58,33 75,43 23,13 46,24 67,34l75 424c3,17 5,35 8,54 9,-17 17,-33 25,-48l101 -185c12,-22 23,-42 31,-59 3,-6 2,-11 -3,-16l-39 -37 10 -19c32,18 58,33 78,44 21,12 47,26 80,42l-9 19 -55 -12c-7,-2 -11,1 -15,7 -9,15 -20,34 -33,58l-215 393 -43 -18 -88 -502c-2,-15 -5,-33 -8,-53 -9,17 -17,34 -25,48l-123 225c-15,28 -27,51 -37,69zm905 -76c-13,-14 -28,-25 -46,-33 -26,-12 -52,-15 -77,-8 -25,7 -43,22 -54,46 -7,14 -10,28 -8,41 1,13 4,26 10,39 6,12 14,25 24,37 9,12 19,24 30,37 12,14 23,29 34,44 12,16 20,32 27,49 7,18 10,36 10,56 0,19 -6,40 -16,63 -23,50 -60,80 -111,91 -50,11 -106,2 -168,-27 -44,-20 -84,-48 -120,-82l-1 -4 81 -123 24 7 -25 125c14,17 32,30 53,40 31,14 60,18 86,11 26,-7 46,-24 58,-50 7,-15 10,-29 9,-42 -1,-13 -5,-26 -11,-39 -6,-13 -14,-25 -24,-38 -10,-12 -20,-24 -31,-37 -11,-14 -23,-29 -34,-44 -11,-15 -20,-31 -26,-48 -6,-17 -10,-35 -9,-55 0,-19 5,-40 16,-63 21,-46 56,-75 105,-86 48,-11 101,-3 158,24 36,16 74,41 115,74l1 4 -78 108 -21 -7 19 -110zm116 13c34,14 72,30 115,47 43,17 82,31 116,44l-6 20 -54 -6c-7,-1 -12,2 -14,8 -4,9 -8,18 -12,29 -5,10 -9,21 -14,33l-82 207c-27,69 -35,120 -25,154 11,34 39,61 85,79 45,18 85,17 118,-2 34,-18 63,-59 87,-121l84 -212c5,-12 9,-23 13,-33 4,-11 7,-21 10,-30 2,-6 1,-11 -5,-15l-41 -31 7 -21c32,14 61,26 85,36 23,9 51,19 85,32l-5 20 -57 -6c-7,-1 -11,2 -14,9 -4,8 -8,17 -12,28 -4,10 -9,21 -14,34l-75 191c-34,86 -76,141 -126,164 -50,24 -109,22 -177,-4 -77,-31 -126,-71 -149,-121 -22,-50 -18,-114 13,-193l82 -208c5,-12 10,-24 14,-34 3,-10 7,-20 10,-28 2,-7 1,-12 -4,-16l-45 -35 7 -19zm610 693c-4,16 -8,30 -12,42 -3,12 -6,23 -9,33 -2,9 -1,15 5,18l36 25 -4 20c-29,-10 -64,-20 -107,-33 -45,-13 -85,-24 -121,-34l4 -20 56 1c7,0 12,-3 14,-9 3,-10 7,-21 11,-34 4,-13 8,-27 12,-43l91 -308c3,-13 7,-25 10,-36 3,-10 5,-20 8,-29 1,-7 0,-12 -6,-16l-47 -30 4 -20c36,12 73,23 111,34 8,2 18,5 30,8 12,3 27,7 44,12 15,4 28,7 39,10 10,3 19,5 25,7 66,19 113,45 139,77 27,32 34,69 22,112 -12,38 -31,66 -58,84 -27,17 -62,27 -105,28 12,38 21,69 27,92 6,24 12,47 19,69 6,23 12,43 17,61 5,17 11,32 17,43 4,5 7,10 11,14 3,4 7,8 11,11 4,3 8,7 13,10 5,3 11,6 17,9l-5 20c-26,-4 -56,-10 -88,-20 -26,-7 -43,-14 -53,-21 -9,-6 -17,-14 -23,-22 -9,-13 -17,-28 -22,-46 -6,-18 -11,-38 -17,-60 -6,-22 -11,-45 -17,-70 -5,-25 -12,-49 -18,-73 -3,-8 -4,-13 -6,-18 -1,-5 -3,-8 -4,-11 -2,-2 -5,-5 -7,-6 -2,-2 -6,-4 -10,-5l-16 -5 -38 129zm48 -163c14,4 26,8 37,12 37,10 66,9 89,-4 22,-14 39,-40 51,-79 11,-38 11,-68 -1,-90 -11,-22 -34,-39 -69,-49 -6,-2 -12,-3 -19,-5 -7,-1 -15,-3 -24,-4l-64 219zm493 260l-45 68c-9,13 -16,23 -21,32 -5,8 -8,14 -9,19 -1,4 -1,8 1,11 2,3 5,5 10,8l35 20 -3 20c-38,-10 -69,-17 -93,-22 -25,-6 -53,-12 -85,-19l2 -20 45 -3c11,0 19,-3 25,-9 7,-6 14,-14 23,-27l305 -433 44 4 60 517c3,20 6,34 10,41 3,8 10,14 19,20l36 20 -3 20c-35,-9 -71,-18 -107,-26 -47,-11 -94,-21 -139,-31l3 -19 41 -3c6,0 10,-1 13,-3 3,-2 5,-5 6,-10 1,-5 1,-13 1,-22 -1,-9 -2,-21 -4,-36l-9 -80 -161 -37zm136 -206c-8,12 -16,25 -25,39l-86 130 131 30 -16 -153c-1,-16 -3,-32 -4,-46zm364 448c-1,8 1,13 8,16l48 22 -2 21c-36,-7 -65,-12 -88,-16 -23,-4 -53,-8 -90,-14l1 -20 56 -5c7,-1 12,-5 13,-11 4,-22 9,-48 14,-79l53 -318c4,-26 7,-48 10,-66 1,-7 -2,-12 -8,-15l-50 -24 2 -21c37,8 65,13 85,16 26,5 51,8 74,11l210 375c9,15 17,31 26,48 2,-18 5,-36 8,-53l34 -207c4,-26 8,-48 10,-67 1,-6 -2,-11 -8,-14l-49 -22 3 -21c36,7 66,12 88,16 24,4 53,8 89,13l-1 21 -57 6c-6,1 -10,5 -12,12 -3,17 -7,39 -12,66l-73 442 -47 -3 -248 -445c-7,-14 -15,-30 -25,-48 -3,20 -5,38 -8,54l-42 252c-5,32 -9,58 -12,78zm990 -237l-23 1 -18 -118c-20,-9 -43,-15 -68,-17 -59,-6 -107,11 -144,52 -37,41 -59,97 -67,169 -8,77 5,140 38,189 34,50 84,78 152,85 38,4 78,1 121,-10l3 23c-57,31 -119,43 -187,36 -87,-10 -155,-43 -204,-102 -48,-58 -68,-131 -59,-217 10,-92 47,-161 112,-209 65,-47 145,-66 240,-56 47,5 95,16 143,32l2 4 -41 138zm186 -143l102 4c65,3 133,6 203,8l3 3 -31 133 -22 3 -21 -99 -156 -7 -10 214 22 1c23,1 48,1 75,2 7,0 12,-3 15,-10l16 -55 27 0c-2,39 -4,68 -5,88 -1,19 -2,47 -3,86l-26 1 -13 -58c-2,-7 -6,-11 -12,-11 -27,-2 -53,-4 -76,-5l-22 -1 -6 139c-1,29 -2,59 -3,88l161 7 56 -104 25 -2 -17 150 -3 3c-67,-4 -132,-7 -195,-10l-107 -5c-34,-1 -70,-3 -107,-4l-1 -20 55 -12c6,-2 10,-6 11,-12 1,-11 2,-23 2,-36 1,-14 2,-28 2,-45l15 -321c0,-13 1,-26 1,-37 1,-11 1,-21 1,-30 0,-7 -3,-12 -9,-14l-53 -18 -1 -21c38,3 74,5 107,7zm935 289c15,2 31,3 46,2 35,-1 62,-13 79,-36 18,-22 25,-55 24,-99 -2,-43 -13,-74 -31,-94 -19,-20 -47,-29 -85,-27 -14,0 -29,2 -44,5l11 249zm6 149c1,16 2,30 2,43 1,13 2,24 3,34 0,7 4,11 11,13l60 14 2 20c-42,1 -85,2 -131,4 -46,3 -88,5 -125,7l-3 -19 53 -18c7,-2 11,-6 11,-13 -1,-10 -1,-23 -1,-36 -1,-13 -1,-28 -2,-44l-15 -321c0,-14 -1,-26 -1,-37 -1,-11 -2,-21 -2,-30 -1,-7 -4,-12 -11,-13l-54 -14 -3 -20c38,-1 76,-2 112,-4 26,-1 50,-2 74,-5 24,-2 45,-3 65,-4 73,-3 128,7 167,30 39,24 59,60 61,110 3,58 -15,104 -52,138 -38,35 -92,53 -163,56 -19,1 -40,1 -63,-1l5 110zm388 -81l-21 78c-4,16 -7,28 -9,37 -2,10 -3,17 -3,22 1,4 3,7 5,10 3,2 7,3 12,4l40 7 3 21c-39,3 -70,6 -95,8 -25,3 -54,6 -87,11l-4 -20 42 -17c10,-4 17,-10 21,-17 4,-8 8,-18 13,-33l148 -508 43 -11 224 470c9,18 16,30 22,36 7,6 15,10 26,12l40 7 3 20c-36,3 -72,6 -109,10 -48,5 -96,11 -142,16l-4 -19 39 -16c5,-2 9,-5 11,-7 2,-3 3,-7 2,-11 0,-6 -2,-13 -6,-21 -4,-9 -9,-20 -15,-33l-34 -73 -165 17zm62 -239c-3,14 -7,29 -11,45l-40 151 135 -14 -65 -140c-7,-15 -13,-29 -19,-42zm541 33l51 -165c5,-14 9,-26 11,-36 3,-10 4,-18 3,-24 -1,-8 -8,-12 -21,-14l-37 -3 -5 -21c30,-4 61,-9 93,-14 30,-5 59,-10 87,-16l5 20 -40 19c-9,5 -15,11 -19,18 -5,7 -9,16 -12,26l-87 254 21 129c3,16 5,31 7,44 3,13 5,24 7,35 1,7 7,10 16,11l47 7 4 19c-34,5 -74,11 -119,19 -46,7 -86,14 -120,21l-5 -19 47 -23c7,-3 9,-8 9,-14 -2,-11 -3,-23 -5,-36 -2,-13 -4,-28 -7,-44l-20 -119 -168 -211c-12,-14 -22,-25 -30,-31 -7,-6 -16,-9 -27,-11l-40 -4 -5 -20c26,-4 64,-9 112,-17 53,-9 103,-18 151,-27l5 20 -39 17c-6,2 -10,5 -12,8 -3,3 -4,6 -3,10 1,6 4,12 9,20 5,7 12,16 20,25l116 147zm434 -310c-19,-3 -37,-2 -57,3 -28,6 -50,20 -65,40 -16,21 -21,44 -15,70 4,16 10,28 19,38 9,9 19,17 32,23 12,7 26,12 41,15 15,4 31,8 47,11 18,4 36,9 55,14 18,5 35,13 51,22 15,10 29,22 41,38 12,15 21,35 27,60 12,53 1,100 -32,139 -33,40 -83,67 -149,82 -47,11 -96,14 -145,10l-3 -3 -12 -146 24 -10 57 114c21,4 42,4 66,-1 33,-8 58,-23 74,-44 17,-22 22,-47 15,-75 -3,-16 -10,-29 -19,-39 -8,-10 -19,-17 -32,-24 -13,-6 -27,-11 -42,-15 -15,-4 -31,-7 -47,-11 -18,-4 -36,-8 -54,-13 -18,-5 -35,-13 -50,-22 -16,-10 -29,-22 -41,-37 -12,-16 -21,-36 -26,-60 -12,-50 -2,-94 30,-133 31,-38 78,-64 139,-78 39,-9 84,-13 137,-12l3 3 4 132 -20 8 -53 -99zm875 92l32 -15 48 207 -3 6c-76,21 -159,44 -248,71 -82,24 -164,48 -245,73l-25 -70c27,-32 52,-62 76,-91 25,-29 46,-54 64,-77 19,-23 34,-45 46,-64 11,-19 20,-37 25,-53 5,-17 8,-32 8,-47 0,-14 -2,-29 -7,-44 -9,-34 -30,-57 -61,-70 -31,-12 -66,-12 -104,-1 -40,11 -78,36 -116,73l-36 -40c59,-70 126,-116 203,-139 64,-18 121,-18 172,2 50,19 83,52 96,98 8,29 9,55 3,80 -6,25 -19,51 -39,79 -20,27 -45,57 -77,90 -32,33 -70,71 -113,114l1 3 283 -83 17 -102zm543 19c-44,18 -86,35 -126,51l-9 -18 54 -40c5,-4 7,-10 5,-16 -7,-19 -17,-43 -28,-73l-145 -367 -108 43 5 113 -20 12 -65 -136 1 -4c62,-24 121,-46 178,-69l105 -41c56,-22 115,-46 177,-72l3 3 30 147 -20 11 -65 -94 -109 43 145 367c12,30 22,54 29,72 3,6 8,9 15,8l66 -6 8 18c-42,15 -84,32 -126,48zm261 -426c37,78 78,132 124,161 45,29 94,31 145,7 50,-23 78,-59 85,-108 6,-49 -9,-114 -47,-194 -35,-76 -75,-128 -119,-157 -45,-28 -94,-30 -147,-5 -51,24 -80,60 -86,109 -5,48 10,111 45,187zm424 -204c40,84 46,164 21,238 -26,75 -83,133 -172,174 -85,40 -162,47 -230,21 -69,-25 -122,-79 -160,-160 -39,-84 -46,-163 -18,-235 27,-73 84,-129 173,-171 85,-39 161,-47 229,-23 68,25 120,76 157,156zm83 -292l-19 -23c82,-67 159,-131 232,-193l7 1c34,63 71,126 111,189l79 126c14,22 27,43 39,61 11,17 22,33 31,47 7,10 15,13 26,10l95 -31 16 23c-64,39 -120,74 -169,105 -49,31 -105,67 -167,107l-17 -22 70 -74c8,-9 9,-17 4,-25 -9,-15 -18,-29 -27,-45 -10,-15 -20,-31 -31,-48l-51 -82c-22,-35 -43,-67 -62,-97 -20,-30 -38,-58 -56,-85l-111 56z"/>
   <g>
    <path class="fil2" d="M5288 2933c-14,-13 -30,-26 -46,-40l6 -8 29 13c4,1 7,1 10,-2 4,-5 9,-10 14,-17 5,-6 11,-13 17,-20l127 -152c6,-7 10,-12 15,-18 4,-5 8,-10 11,-14 2,-3 3,-7 1,-10l-17 -27 6 -9c16,15 31,28 46,41 12,11 24,21 36,30 12,9 24,19 36,30 43,37 67,75 72,114 5,38 -9,77 -42,117 -39,46 -81,72 -126,77 -45,4 -90,-12 -133,-50 -12,-10 -22,-19 -31,-28 -9,-8 -19,-18 -31,-27zm32 -1c6,7 13,14 20,20 6,6 13,13 20,19 32,28 65,39 98,35 33,-5 67,-28 100,-68 33,-39 49,-75 49,-108 -1,-32 -18,-64 -53,-94 -5,-5 -12,-10 -19,-16 -6,-5 -14,-11 -23,-18l-192 230zm372 315c-16,-2 -31,-6 -45,-12 -14,-6 -25,-13 -35,-21 -28,-23 -44,-49 -49,-79 -4,-30 5,-60 27,-88 22,-29 49,-46 79,-51 30,-5 58,3 85,24 22,19 35,40 37,63 1,24 -7,48 -26,72 -2,3 -6,7 -9,10l-120 -97c-21,28 -30,53 -26,75 3,23 18,45 45,67 13,9 26,19 42,28l-5 9zm39 -129l4 -6c14,-18 22,-33 22,-45 0,-13 -5,-24 -16,-33 -15,-12 -30,-15 -47,-10 -16,4 -31,14 -44,29l81 65zm148 148c-28,-20 -49,-30 -63,-31 -14,-2 -26,4 -35,18 -9,13 -12,25 -9,35 3,10 11,19 22,27 14,9 27,15 40,17l45 -66zm-40 -151c34,6 60,16 80,30 21,15 33,31 38,51 4,19 0,39 -14,59l-58 84c-5,7 -9,12 -11,17 -3,4 -4,8 -3,12 0,4 2,7 5,11 4,3 8,8 15,12l-4 9c-8,-2 -16,-4 -26,-8 -10,-3 -16,-6 -19,-8 -13,-9 -18,-23 -13,-40 -28,1 -51,-5 -67,-16 -19,-13 -31,-29 -36,-46 -5,-17 -2,-34 10,-51 14,-21 33,-30 58,-27 25,3 57,18 96,45l11 -15c10,-15 14,-29 11,-42 -2,-12 -12,-24 -28,-36 -12,-8 -29,-16 -50,-24l5 -17zm254 17l4 -7c26,11 52,22 75,31l1 3c-16,21 -37,52 -64,91l-89 132c-16,24 -29,44 -39,59 -2,4 -2,8 1,11l17 22 -5 9c-18,-13 -33,-24 -46,-34 -13,-9 -29,-19 -47,-31l5 -9 27 9c4,1 7,0 10,-3 10,-15 22,-32 34,-51l57 -83c34,-51 61,-91 81,-122l-22 -27zm107 462c-16,0 -31,-2 -45,-7 -15,-5 -27,-10 -37,-17 -30,-20 -49,-44 -56,-74 -8,-29 -2,-59 17,-90 20,-31 44,-50 74,-59 29,-8 58,-3 87,16 24,16 38,35 42,59 5,23 -1,48 -18,73 -2,4 -5,8 -8,12l-128 -84c-19,29 -25,55 -20,77 6,22 23,42 53,61 13,9 27,16 44,24l-5 9zm26 -131l4 -7c12,-19 18,-35 17,-48 0,-12 -7,-22 -19,-30 -16,-10 -31,-12 -47,-6 -16,6 -30,18 -42,34l87 57zm102 -26c26,10 50,18 74,25l2 3 -15 25c36,-2 66,5 91,20l0 1c-16,19 -33,39 -50,59l-9 -4c3,-14 5,-26 6,-35 0,-10 -3,-17 -11,-22 -8,-4 -19,-6 -34,-6l-54 91c-13,22 -22,38 -27,48 -2,4 -2,7 1,10l23 25 -4 9c-22,-13 -39,-24 -53,-33 -14,-8 -30,-18 -49,-28l5 -10 28 8c4,1 7,0 9,-3 4,-6 9,-15 15,-26l43 -73c13,-23 23,-40 29,-52l-24 -24 4 -8zm429 275c-1,8 -4,16 -8,25l-40 79c-8,17 -15,31 -20,41 -2,4 -1,8 2,11l18 17 -4 10c-17,-10 -33,-18 -47,-26 -14,-7 -30,-15 -47,-24l3 -9 24 4c5,1 8,0 10,-3 1,-2 3,-7 7,-14l48 -96c9,-18 11,-33 7,-45 -4,-12 -14,-22 -29,-30 -14,-7 -30,-10 -49,-9l-48 96c-9,18 -18,35 -25,50 -2,5 -2,8 1,10l19 19 -4 9c-17,-10 -33,-18 -47,-26 -15,-7 -31,-16 -51,-25l4 -10 28 6c4,1 7,-1 9,-4 4,-8 9,-17 14,-27l38 -75c9,-19 18,-37 25,-54l-24 -22 2 -9c26,8 52,15 76,21l1 2 -12 26c32,-6 59,-3 80,8 26,13 40,33 41,59 33,-8 63,-6 89,8 20,11 33,25 38,42 6,17 3,37 -7,58l-39 78c-9,18 -16,32 -20,41 -2,4 -1,7 2,10l20 20 -4 10c-19,-11 -35,-20 -50,-27 -14,-7 -30,-15 -47,-24l3 -9 25 4c4,1 7,0 9,-4 1,-1 3,-6 7,-13l48 -96c9,-18 11,-33 7,-45 -4,-12 -14,-22 -30,-31 -16,-8 -33,-10 -53,-7zm276 311c-31,7 -58,6 -81,-4 -23,-11 -38,-25 -45,-42 -6,-17 -5,-37 5,-58l20 -48c14,-33 24,-57 30,-73l-26 -22 2 -8c28,7 54,12 79,16l1 3c-8,17 -18,39 -30,67l-30 72c-8,18 -10,33 -5,45 5,12 15,22 31,28 15,7 32,10 52,9l41 -96c9,-21 16,-39 22,-54l-26 -21 2 -8c28,6 54,12 79,16l1 2c-8,18 -19,41 -31,69 -23,55 -37,88 -42,100 -2,7 -4,12 -5,16 -1,4 -1,8 1,10 1,3 3,6 7,9 4,2 9,5 16,9l-3 9c-8,0 -17,-1 -27,-3 -10,-1 -16,-3 -20,-4 -15,-7 -21,-20 -18,-39zm277 -86c-8,-6 -17,-12 -27,-16 -14,-5 -26,-7 -37,-5 -11,2 -18,8 -22,17 -4,10 -4,18 0,26 3,7 12,17 25,28l16 14c18,16 30,30 36,43 6,13 6,28 0,43 -8,21 -22,34 -43,40 -21,5 -44,3 -69,-7 -23,-9 -44,-23 -64,-42 13,-18 24,-36 35,-54l9 3 -3 55c7,7 18,13 31,18 14,6 26,8 37,5 10,-2 17,-8 22,-19 3,-10 4,-19 0,-27 -3,-7 -10,-16 -21,-25l-20 -18c-18,-15 -29,-29 -33,-42 -4,-12 -3,-26 3,-40 8,-20 21,-33 41,-39 19,-5 41,-3 66,7 22,9 42,21 58,35 -11,16 -22,33 -33,51l-9 -2 2 -49zm132 58c-20,52 -35,94 -46,127 -6,16 -8,28 -5,35 2,8 10,15 23,20 11,3 25,7 43,10l-3 11c-31,4 -56,2 -77,-5 -17,-6 -28,-16 -33,-28 -5,-12 -4,-27 2,-45 11,-30 28,-78 53,-142l-29 -19 2 -10 36 10 36 -51c10,1 18,2 26,2l2 3c-7,18 -14,36 -19,52l-3 9 68 25 -8 22 -68 -26zm350 117c-9,-6 -20,-12 -32,-16 -26,-8 -48,-7 -67,3 -18,11 -33,32 -43,63 -8,26 -9,50 -2,70 7,20 22,33 44,41 14,4 30,5 48,2l52 -163zm12 -150c29,3 56,6 81,8l1 3c-11,33 -23,68 -36,107l-41 127c-7,22 -13,43 -20,64 -3,8 -4,15 -5,20 -1,5 -1,9 0,12 1,4 4,7 8,9 4,2 10,5 17,7l-2 10c-7,0 -16,0 -26,0 -11,-1 -17,-1 -21,-3 -15,-5 -23,-17 -23,-37 -29,11 -55,12 -77,4 -29,-9 -48,-27 -59,-53 -10,-26 -10,-54 -1,-84 13,-39 34,-65 63,-79 29,-14 64,-14 105,-1 9,4 20,9 31,15 11,-35 22,-69 32,-102l-28 -19 1 -8zm88 170c28,3 54,5 79,6l2 2 -8 28c34,-11 65,-13 92,-4l1 1c-11,23 -23,46 -34,70l-10 -1c0,-15 -1,-27 -3,-36 -2,-10 -7,-16 -16,-18 -8,-3 -20,-2 -34,2l-30 102c-7,25 -12,43 -15,53 -1,4 0,8 4,10l28 18 -2 10c-24,-8 -44,-14 -59,-18 -15,-5 -33,-10 -54,-16l2 -10 29 0c4,0 7,-2 8,-5 2,-7 5,-17 9,-29l23 -81c7,-26 12,-45 15,-58l-28 -17 1 -9zm273 186c-33,-9 -56,-11 -70,-8 -14,4 -23,14 -27,30 -4,15 -3,27 4,35 6,9 16,15 30,18 15,5 29,5 42,3l21 -78zm-89 -129c34,-5 63,-5 86,1 24,7 42,18 52,35 11,16 13,36 7,60l-27 99c-2,8 -3,15 -4,20 -1,5 0,9 1,13 2,3 5,6 9,8 4,2 10,4 18,7l-1 9c-8,1 -17,2 -27,2 -11,0 -17,-1 -21,-2 -15,-4 -24,-14 -25,-32 -26,10 -49,13 -69,8 -22,-6 -38,-16 -49,-31 -10,-14 -13,-32 -8,-51 6,-25 22,-40 46,-46 25,-6 60,-3 106,9l5 -18c4,-18 3,-32 -3,-43 -7,-11 -20,-19 -39,-24 -14,-4 -33,-6 -55,-6l-2 -18zm184 32c22,6 39,10 50,13 15,3 33,7 53,11l-2 10 -29 2c2,38 6,81 12,130 2,10 3,20 4,31 5,-9 10,-18 16,-27 20,-31 36,-55 46,-73 11,-18 22,-35 32,-52l17 2c2,21 4,41 6,62 1,21 5,50 9,87 1,11 2,21 3,31 5,-8 10,-17 16,-26 28,-41 51,-78 71,-111l-25 -14 1 -10c13,3 26,7 40,10 14,3 27,6 38,8l-1 10 -20 1c-5,0 -10,3 -14,9 -23,33 -44,62 -62,89 -18,27 -37,57 -59,90l-22 -3c-3,-30 -6,-55 -8,-74 -2,-20 -5,-41 -8,-63 -1,-9 -2,-18 -2,-26 -4,7 -9,14 -14,21 -13,20 -25,38 -36,54 -10,16 -23,37 -38,61l-22 -3c-4,-41 -9,-77 -14,-109 -4,-32 -9,-68 -15,-108 0,-6 -4,-11 -9,-14l-16 -9 2 -10zm535 138c-10,54 -18,99 -23,132 -3,17 -2,29 2,36 3,8 12,13 26,15 11,2 26,3 44,3l-1 11c-29,10 -55,12 -77,9 -18,-3 -30,-10 -37,-21 -7,-11 -9,-26 -6,-45 5,-32 14,-82 26,-150l-31 -13 0 -10 37 3 27 -56c9,-1 18,-2 26,-3l2 2c-4,19 -7,38 -10,55l-1 9 71 12 -3 23 -72 -12zm129 107c-4,31 -2,57 7,77 9,21 24,33 46,36 20,3 37,-4 50,-19 13,-15 22,-40 26,-73 4,-31 2,-56 -7,-76 -9,-19 -24,-30 -46,-33 -20,-3 -37,3 -50,17 -13,15 -22,39 -26,71zm179 23c-5,37 -20,66 -45,85 -25,20 -54,28 -88,23 -33,-4 -59,-19 -76,-43 -18,-25 -24,-54 -20,-89 5,-36 20,-64 44,-84 25,-20 54,-27 90,-22 33,4 58,19 76,42 17,24 24,53 19,88zm144 -71l0 -11c33,-1 66,-3 98,-6l2 3c-4,28 -8,57 -12,88l-6 59c-2,22 -4,39 -5,53 0,4 2,8 6,9l37 14 0 10c-30,-3 -52,-6 -68,-8 -15,-1 -38,-3 -68,-6l0 -10 41 -6c4,-1 6,-3 7,-7 2,-13 3,-28 5,-44l4 -41c4,-33 6,-62 8,-87l-49 -10zm384 -88c-51,6 -90,21 -117,45 -27,23 -45,53 -55,90l0 0c22,-20 48,-29 79,-26 29,2 53,14 71,35 19,21 27,47 25,77 -3,32 -15,58 -39,77 -23,20 -51,28 -83,26 -36,-3 -64,-18 -84,-46 -20,-28 -29,-62 -26,-103 4,-51 24,-94 62,-130 37,-37 92,-58 165,-63l2 18zm-49 231c2,-28 -3,-52 -15,-71 -11,-19 -27,-29 -47,-31 -19,-1 -34,4 -47,17 -13,12 -20,30 -21,53 -2,28 3,52 15,73 12,22 28,33 49,34 18,2 33,-5 45,-19 12,-15 19,-33 21,-56zm320 -7c-34,-1 -57,2 -70,9 -12,7 -18,19 -19,36 0,15 4,26 12,33 8,7 19,10 33,10 16,1 31,-2 42,-8l2 -80zm-116 -104c32,-13 60,-20 84,-20 25,1 44,8 59,21 14,13 21,32 20,57l-3 103c0,8 0,15 1,20 0,5 2,9 4,12 2,3 6,5 10,6 5,1 11,2 19,2l1 10c-7,2 -15,5 -25,8 -10,2 -17,4 -21,4 -16,-1 -26,-9 -32,-26 -23,17 -45,25 -65,24 -23,0 -41,-6 -54,-17 -14,-12 -21,-28 -20,-49 0,-25 11,-44 34,-55 22,-12 57,-17 104,-17l1 -19c0,-18 -4,-32 -13,-41 -9,-9 -24,-13 -43,-14 -15,0 -33,3 -55,8l-6 -17zm214 2c27,-6 53,-12 77,-19l2 2 0 29c28,-21 54,-31 78,-32 23,0 41,6 55,19 13,13 20,31 20,55l1 87c0,21 1,36 1,46 1,4 3,7 7,8l27 8 0 10c-21,0 -40,0 -55,0 -16,1 -34,1 -53,2l-1 -10 24 -8c3,-1 5,-4 6,-7 0,-3 0,-8 0,-16l-2 -107c0,-21 -5,-35 -15,-44 -9,-8 -23,-12 -42,-12 -16,0 -33,5 -50,15l2 108c0,20 0,39 1,56 0,4 2,7 5,8l26 8 0 10c-20,0 -38,0 -53,0 -16,0 -35,1 -57,1l-1 -10 29 -8c3,-2 5,-5 5,-8 0,-11 0,-21 0,-30l-1 -85c-1,-21 -1,-41 -2,-59l-32 -9 -2 -8zm456 -1c-11,-3 -23,-4 -36,-4 -28,1 -48,10 -62,27 -13,17 -19,41 -18,74 1,28 9,50 22,66 14,16 32,24 55,23 15,-1 30,-6 46,-15l-7 -171zm-42 -146c29,-7 55,-14 79,-21l2 2c1,35 2,73 4,113l6 134c1,23 2,45 3,68 0,8 1,15 1,20 1,5 3,9 5,11 3,3 6,5 10,5 5,1 11,1 19,1l2 10c-7,3 -15,6 -25,9 -10,4 -17,5 -20,5 -17,1 -28,-8 -34,-26 -24,20 -48,31 -72,32 -30,1 -54,-9 -73,-29 -18,-21 -29,-47 -30,-79 -2,-41 9,-73 31,-96 23,-23 56,-36 98,-38 10,-1 22,0 35,2 -2,-37 -4,-72 -6,-106l-33 -9 -2 -8zm396 217c-33,3 -56,8 -68,16 -12,8 -17,20 -16,37 1,16 6,27 15,32 8,6 20,9 34,8 16,-2 29,-6 41,-12l-6 -81zm-124 -92c30,-17 58,-26 82,-28 24,-2 44,4 60,16 15,12 24,30 25,55l6 102c1,9 2,15 3,20 0,6 2,9 5,12 2,2 6,4 11,5 4,0 11,1 19,0l2 10c-7,3 -15,6 -25,10 -10,3 -17,5 -20,6 -16,1 -27,-7 -35,-23 -21,19 -42,29 -62,30 -23,2 -41,-2 -56,-12 -14,-11 -22,-26 -24,-47 -2,-25 8,-44 29,-58 21,-14 56,-22 103,-26l-1 -19c-1,-18 -7,-32 -17,-40 -10,-8 -25,-11 -44,-10 -15,1 -33,6 -54,13l-7 -16zm199 -152l-3 -8c28,-8 54,-17 77,-26l3 2c2,27 5,64 10,111l16 160c3,29 6,52 8,70 1,5 4,8 8,8l27 6 1 10c-21,1 -40,3 -56,5 -16,2 -34,4 -56,7l-2 -10 27 -11c4,-2 5,-5 5,-9 -1,-18 -3,-39 -6,-62l-10 -100c-6,-61 -12,-110 -16,-147l-33 -6zm121 105c23,-2 40,-5 51,-6 16,-2 33,-5 53,-8l3 10 -28 11c16,35 35,74 57,118 5,9 10,18 14,28 2,-10 4,-21 6,-31 8,-36 14,-65 18,-85 4,-21 8,-41 11,-60l18 -5c8,19 17,38 26,57 9,19 22,44 39,78 5,9 9,19 13,28 2,-10 4,-20 6,-31 12,-48 21,-91 28,-129l-28 -4 -2 -10c13,-1 26,-3 41,-5 14,-2 27,-4 38,-6l3 10 -19 8c-5,2 -8,7 -10,13 -10,39 -19,74 -27,106 -7,31 -16,66 -24,105l-22 5c-13,-27 -24,-49 -33,-67 -9,-17 -19,-35 -29,-55 -4,-9 -8,-16 -11,-24 -2,8 -4,16 -6,25 -5,23 -10,44 -14,63 -5,19 -10,43 -16,71l-21 5c-18,-36 -35,-69 -50,-97 -15,-28 -33,-60 -52,-95 -3,-6 -7,-9 -13,-10l-18 -3 -2 -10zm517 39c-33,5 -56,13 -67,22 -11,9 -15,22 -12,38 2,16 8,26 17,31 9,5 21,6 35,4 15,-3 29,-8 40,-16l-13 -79zm-132 -81c29,-19 55,-31 79,-35 24,-4 45,-1 61,10 16,11 27,28 30,53l16 101c1,9 2,15 4,20 1,5 3,9 6,11 2,2 6,4 11,4 5,0 11,0 19,-1l3 9c-7,4 -15,8 -24,12 -10,5 -16,7 -19,8 -16,2 -28,-4 -37,-19 -19,20 -39,32 -59,35 -23,4 -42,2 -57,-7 -15,-9 -25,-24 -28,-44 -4,-25 4,-45 24,-61 20,-15 53,-27 100,-35l-3 -19c-3,-18 -10,-31 -20,-38 -11,-7 -26,-9 -45,-6 -14,3 -32,8 -53,18l-8 -16zm176 -48c20,-4 37,-7 53,-10 11,-2 27,-6 51,-11l2 9 -26 14c9,16 20,33 31,52 12,19 24,38 37,59 6,8 12,18 18,29 2,-13 5,-26 8,-40 3,-20 7,-40 10,-60 4,-19 7,-40 10,-63l-28 -3 -3 -9c12,-2 26,-5 41,-8 14,-3 28,-6 41,-9l3 10 -21 11c-4,2 -7,6 -8,12 -4,15 -7,31 -11,49 -11,54 -19,98 -23,132 -3,23 -6,47 -7,71 -1,23 -2,44 -2,61 0,8 -2,15 -5,20 -4,5 -14,9 -30,12 -16,3 -32,6 -47,8l-3 -9c16,-7 28,-15 35,-25 8,-14 18,-46 30,-99l1 -5 -4 0c-43,-68 -82,-127 -116,-179 -3,-4 -7,-6 -13,-7l-22 -3 -2 -9z"/>
    <path class="fil2" d="M11936 4231c-10,-1 -20,0 -31,3 -15,3 -26,9 -34,17 -7,8 -10,17 -8,27 2,10 7,17 14,21 7,4 20,7 37,9l21 2c23,2 41,7 53,15 13,7 21,18 24,34 5,23 1,42 -14,59 -14,16 -34,28 -60,34 -24,5 -49,6 -76,2 0,-22 0,-43 -1,-64l9 -4 28 48c10,1 22,0 36,-3 14,-3 25,-9 33,-17 7,-8 10,-18 7,-29 -2,-10 -7,-17 -14,-22 -7,-5 -18,-7 -32,-9l-26 -2c-23,-3 -40,-8 -50,-16 -11,-9 -18,-20 -21,-35 -5,-21 -1,-40 12,-56 13,-15 33,-26 58,-32 24,-6 47,-7 68,-5 -1,20 0,40 1,61l-9 4 -25 -42zm283 -79c-10,0 -20,2 -31,5 -14,4 -25,11 -33,19 -7,9 -9,18 -6,28 3,9 8,16 15,20 7,4 20,6 37,6l21 1c24,1 42,5 54,12 13,6 22,17 26,33 7,22 3,41 -10,59 -13,17 -32,30 -58,38 -23,7 -49,9 -76,7 -1,-22 -2,-44 -5,-64l9 -4 31 45c10,1 22,-1 35,-5 15,-4 25,-10 32,-19 7,-8 9,-18 6,-29 -3,-10 -8,-17 -16,-21 -7,-4 -18,-7 -32,-7l-26 -1c-23,-1 -40,-5 -51,-13 -11,-7 -19,-19 -23,-34 -6,-20 -3,-39 9,-55 12,-17 31,-29 56,-37 24,-7 46,-10 67,-8 1,19 2,39 5,60l-9 5 -27 -41zm139 -35c16,54 30,96 40,129 5,16 11,26 18,31 7,5 17,5 30,0 11,-3 24,-9 40,-18l5 10c-22,23 -44,38 -65,45 -17,5 -31,5 -42,-2 -11,-6 -20,-18 -26,-37 -9,-30 -24,-78 -44,-144l-34 2 -5 -9 35 -15 -2 -62c8,-5 15,-10 21,-15l3 1c6,19 11,37 17,54l2 8 69 -23 8 22 -70 23zm253 11c-33,11 -54,22 -63,32 -10,11 -12,24 -7,40 5,15 12,24 22,28 10,4 21,3 35,-1 15,-5 27,-13 37,-22l-24 -77zm-143 -59c26,-23 50,-39 73,-47 23,-8 44,-7 62,0 17,8 30,24 37,48l31 98c2,8 4,14 6,19 3,5 5,8 8,10 3,2 7,2 12,2 5,-1 11,-2 18,-4l4 8c-5,5 -12,10 -21,16 -9,6 -15,10 -18,11 -15,5 -28,0 -39,-13 -16,23 -34,37 -53,44 -22,7 -41,7 -58,1 -16,-6 -28,-19 -34,-39 -8,-24 -3,-45 15,-64 17,-18 48,-35 93,-50l-5 -18c-6,-18 -14,-29 -26,-35 -11,-5 -26,-5 -45,1 -14,5 -30,14 -49,26l-11 -14zm196 -70c23,-15 45,-30 65,-45l3 1 10 27c19,-30 39,-49 62,-58 21,-9 40,-9 57,-2 17,7 30,22 38,44l32 81c7,19 13,33 17,42 1,4 4,6 9,6l28 -2 4 9c-20,7 -38,14 -52,20 -15,6 -31,13 -49,21l-5 -9 20 -16c3,-3 4,-6 3,-10 -1,-2 -3,-7 -5,-14l-39 -100c-8,-19 -17,-30 -29,-35 -12,-5 -27,-3 -44,4 -15,6 -29,16 -42,32l39 100c8,19 15,36 21,52 2,4 5,6 8,6l27 -3 4 10c-19,7 -36,13 -51,19 -14,6 -32,14 -52,22l-4 -9 23 -18c3,-3 4,-6 3,-10 -4,-9 -8,-19 -11,-28l-31 -78c-7,-20 -15,-38 -22,-55l-33 4 -4 -8zm425 -166c-11,1 -23,5 -35,10 -25,11 -41,27 -48,47 -7,21 -4,46 9,76 11,26 25,44 43,54 19,10 39,11 60,1 14,-6 26,-16 38,-30l-67 -158zm-89 -121c24,-16 46,-32 65,-48l3 1c13,33 27,68 43,105l52 123c9,21 18,41 27,61 3,8 6,14 8,19 3,4 6,7 9,9 3,1 7,2 11,1 5,-1 11,-3 18,-6l5 8c-5,5 -12,11 -20,18 -8,7 -14,11 -17,12 -15,7 -29,3 -41,-12 -16,27 -34,46 -56,55 -27,13 -53,12 -78,0 -25,-13 -43,-34 -56,-63 -16,-37 -17,-71 -4,-101 13,-30 39,-54 78,-71 9,-4 20,-8 33,-11 -14,-33 -28,-65 -42,-97l-34 4 -4 -7zm367 92c14,27 30,47 49,59 18,12 37,13 57,2 19,-9 29,-24 31,-44 2,-21 -4,-45 -19,-75 -14,-28 -30,-48 -49,-58 -18,-11 -37,-12 -56,-1 -18,9 -29,24 -31,43 -3,20 3,44 18,74zm159 -86c17,34 21,66 11,97 -9,30 -29,54 -60,70 -29,15 -58,18 -86,8 -28,-10 -50,-30 -66,-62 -16,-32 -20,-63 -11,-94 9,-30 29,-54 61,-70 30,-16 59,-19 86,-9 28,9 50,29 65,60zm-20 -99c22,-18 41,-35 59,-53l4 1 13 25c15,-32 33,-54 54,-66 20,-11 39,-14 57,-9 17,5 32,18 43,39l41 76c10,18 17,31 22,40 3,4 6,5 10,4l27 -6 6 9c-19,10 -36,19 -50,27 -13,8 -29,17 -45,27l-6 -9 18 -18c2,-3 3,-6 1,-10 -1,-2 -3,-6 -7,-13l-51 -94c-9,-18 -20,-28 -33,-31 -12,-4 -26,0 -43,9 -14,8 -26,20 -37,37l51 94c10,18 19,35 27,49 2,4 5,6 9,5l26 -6 5 9c-18,9 -34,18 -48,26 -13,8 -30,17 -48,28l-6 -8 21 -22c2,-3 3,-6 1,-9 -5,-9 -9,-18 -14,-27l-40 -73c-10,-19 -20,-36 -29,-52l-32 8 -6 -7zm501 -174c-29,19 -46,34 -53,47 -7,13 -6,27 3,41 9,13 18,20 28,21 11,1 22,-3 34,-10 13,-9 23,-19 30,-31l-42 -68zm-152 -21c19,-29 38,-50 59,-64 20,-13 40,-18 60,-15 19,3 35,15 48,36l53 87c4,7 8,13 11,17 3,4 7,6 10,7 3,1 7,1 12,-1 4,-1 10,-4 17,-8l6 7c-4,6 -10,13 -17,21 -7,8 -12,13 -15,15 -13,8 -27,7 -41,-3 -10,26 -24,45 -41,56 -19,13 -37,18 -55,16 -17,-2 -32,-11 -42,-29 -14,-21 -14,-43 -2,-65 12,-23 38,-47 78,-73l-10 -16c-9,-16 -20,-25 -33,-27 -12,-2 -27,2 -43,13 -12,8 -26,20 -42,37l-13 -11zm106 -225l-6 -6c20,-21 39,-41 55,-60l3 0c14,23 35,54 61,93l89 132c17,25 30,44 40,59 3,3 7,4 11,3l26 -9 6 8c-18,12 -34,23 -47,32 -13,10 -28,21 -46,34l-6 -8 18 -23c2,-3 3,-7 1,-10 -10,-16 -22,-33 -34,-51l-57 -84c-34,-50 -61,-90 -82,-121l-32 11zm114 -80l-5 -6c20,-21 38,-41 55,-60l3 0c14,23 34,53 61,93l89 132c16,24 30,44 40,58 3,4 6,5 10,3l27 -8 6 8c-18,12 -34,23 -47,32 -13,9 -29,20 -46,33l-7 -8 18 -22c3,-4 3,-7 1,-10 -10,-16 -21,-33 -34,-52l-56 -83c-34,-51 -62,-91 -83,-121l-32 11zm283 -33l-7 -8c23,-24 46,-48 68,-72l3 0c15,24 32,49 50,73l35 49c12,17 23,31 31,42 3,3 6,4 10,3l37 -16 7 8c-25,18 -43,31 -56,41 -12,9 -31,23 -54,42l-7 -8 26 -32c3,-3 3,-7 1,-10 -8,-11 -16,-23 -26,-36l-24 -33c-19,-26 -36,-49 -51,-70l-43 27zm333 121l-65 -315 -121 98 18 47 -6 7 -57 -66 0 -3c15,-12 30,-23 44,-34 15,-12 29,-23 42,-34l11 -9c13,-11 26,-21 39,-31 12,-11 24,-21 36,-30l7 7c4,20 8,39 13,59 5,20 10,40 15,60 5,20 10,40 16,59 5,20 10,38 16,57 5,18 11,35 16,51 5,16 10,31 15,44l-37 34 -2 -1zm54 -448c-8,4 -17,10 -25,17 -12,10 -19,20 -23,31 -3,11 -1,20 5,28 7,7 14,11 22,12 9,0 21,-3 37,-10l19 -7c22,-9 40,-13 55,-13 14,1 26,8 36,20 15,17 20,37 15,58 -5,22 -18,41 -38,59 -19,16 -41,29 -67,38 -10,-20 -19,-39 -30,-57l6 -7 47 29c10,-4 20,-10 30,-19 12,-10 19,-21 22,-31 3,-11 1,-20 -7,-29 -6,-8 -14,-12 -22,-13 -9,-1 -20,2 -32,7l-25 10c-21,9 -38,12 -51,10 -13,-3 -25,-10 -35,-22 -13,-16 -18,-34 -14,-55 5,-20 17,-38 37,-56 18,-16 38,-28 58,-36 8,18 17,35 28,54l-6 7 -42 -25z"/>
   </g>
   <path class="fil3" d="M8056 593l4038 0 0 1183c0,143 -117,260 -260,260l-3518 0c-143,0 -260,-117 -260,-260l0 -1183z"/>
   <rect class="fil4" x="8316" y="693" width="315" height="1243"/>
   <rect class="fil4" x="9231" y="693" width="315" height="1243"/>
   <rect class="fil4" x="9689" y="693" width="315" height="1243"/>
   <rect class="fil4" x="10146" y="693" width="315" height="1243"/>
   <rect class="fil4" x="10604" y="693" width="315" height="1243"/>
   <rect class="fil4" x="11061" y="693" width="315" height="1243"/>
   <rect class="fil4" x="11519" y="693" width="315" height="1243"/>
   <rect class="fil4" x="8774" y="693" width="315" height="1243"/>
   <path class="fil5" d="M8631 1388l0 31 -315 0 0 -31 315 0zm0 -691l0 32 -315 0 0 -32 315 0zm0 41l0 31 -315 0 0 -31 315 0zm0 40l0 32 -315 0 0 -32 315 0zm0 41l0 32 -315 0 0 -32 315 0zm0 41l0 31 -315 0 0 -31 315 0zm0 40l0 32 -315 0 0 -32 315 0zm0 41l0 32 -315 0 0 -32 315 0zm0 41l0 31 -315 0 0 -31 315 0zm0 40l0 32 -315 0 0 -32 315 0zm0 41l0 31 -315 0 0 -31 315 0zm0 40l0 32 -315 0 0 -32 315 0zm0 41l0 32 -315 0 0 -32 315 0zm0 41l0 31 -315 0 0 -31 315 0zm0 40l0 32 -315 0 0 -32 315 0zm0 41l0 32 -315 0 0 -32 315 0zm0 41l0 31 -315 0 0 -31 315 0zm0 40l0 32 -315 0 0 -32 315 0z"/>
   <path class="fil6" d="M9089 1550l0 32 -315 0 0 -32 315 0zm0 -853l0 32 -315 0 0 -32 315 0zm0 41l0 31 -315 0 0 -31 315 0zm0 40l0 32 -315 0 0 -32 315 0zm0 41l0 32 -315 0 0 -32 315 0zm0 41l0 31 -315 0 0 -31 315 0zm0 40l0 32 -315 0 0 -32 315 0zm0 41l0 32 -315 0 0 -32 315 0zm0 41l0 31 -315 0 0 -31 315 0zm0 40l0 32 -315 0 0 -32 315 0zm0 41l0 31 -315 0 0 -31 315 0zm0 40l0 32 -315 0 0 -32 315 0zm0 41l0 32 -315 0 0 -32 315 0zm0 41l0 31 -315 0 0 -31 315 0zm0 40l0 32 -315 0 0 -32 315 0zm0 41l0 32 -315 0 0 -32 315 0zm0 41l0 31 -315 0 0 -31 315 0zm0 40l0 32 -315 0 0 -32 315 0zm0 41l0 31 -315 0 0 -31 315 0zm0 40l0 32 -315 0 0 -32 315 0zm0 41l0 32 -315 0 0 -32 315 0zm0 41l0 31 -315 0 0 -31 315 0z"/>
   <path class="fil7" d="M9546 1103l0 32 -315 0 0 -32 315 0zm0 -406l0 32 -315 0 0 -32 315 0zm0 41l0 31 -315 0 0 -31 315 0zm0 40l0 32 -315 0 0 -32 315 0zm0 41l0 32 -315 0 0 -32 315 0zm0 41l0 31 -315 0 0 -31 315 0zm0 40l0 32 -315 0 0 -32 315 0zm0 41l0 32 -315 0 0 -32 315 0zm0 41l0 31 -315 0 0 -31 315 0zm0 40l0 32 -315 0 0 -32 315 0zm0 41l0 31 -315 0 0 -31 315 0z"/>
   <path class="fil8" d="M10004 1469l0 32 -315 0 0 -32 315 0zm0 -772l0 32 -315 0 0 -32 315 0zm0 41l0 31 -315 0 0 -31 315 0zm0 40l0 32 -315 0 0 -32 315 0zm0 41l0 32 -315 0 0 -32 315 0zm0 41l0 31 -315 0 0 -31 315 0zm0 40l0 32 -315 0 0 -32 315 0zm0 41l0 32 -315 0 0 -32 315 0zm0 41l0 31 -315 0 0 -31 315 0zm0 40l0 32 -315 0 0 -32 315 0zm0 41l0 31 -315 0 0 -31 315 0zm0 40l0 32 -315 0 0 -32 315 0zm0 41l0 32 -315 0 0 -32 315 0zm0 41l0 31 -315 0 0 -31 315 0zm0 40l0 32 -315 0 0 -32 315 0zm0 41l0 32 -315 0 0 -32 315 0zm0 41l0 31 -315 0 0 -31 315 0zm0 40l0 32 -315 0 0 -32 315 0zm0 41l0 31 -315 0 0 -31 315 0zm0 40l0 32 -315 0 0 -32 315 0z"/>
   <path class="fil9" d="M10461 1632l0 31 -315 0 0 -31 315 0zm0 -935l0 32 -315 0 0 -32 315 0zm0 41l0 31 -315 0 0 -31 315 0zm0 40l0 32 -315 0 0 -32 315 0zm0 41l0 32 -315 0 0 -32 315 0zm0 41l0 31 -315 0 0 -31 315 0zm0 40l0 32 -315 0 0 -32 315 0zm0 41l0 32 -315 0 0 -32 315 0zm0 41l0 31 -315 0 0 -31 315 0zm0 40l0 32 -315 0 0 -32 315 0zm0 41l0 31 -315 0 0 -31 315 0zm0 40l0 32 -315 0 0 -32 315 0zm0 41l0 32 -315 0 0 -32 315 0zm0 41l0 31 -315 0 0 -31 315 0zm0 40l0 32 -315 0 0 -32 315 0zm0 41l0 32 -315 0 0 -32 315 0zm0 41l0 31 -315 0 0 -31 315 0zm0 40l0 32 -315 0 0 -32 315 0zm0 41l0 31 -315 0 0 -31 315 0zm0 40l0 32 -315 0 0 -32 315 0zm0 41l0 32 -315 0 0 -32 315 0zm0 41l0 31 -315 0 0 -31 315 0zm0 40l0 32 -315 0 0 -32 315 0zm0 41l0 32 -315 0 0 -32 315 0z"/>
   <path class="fil10" d="M10919 1347l0 32 -315 0 0 -32 315 0zm0 -650l0 32 -315 0 0 -32 315 0zm0 41l0 31 -315 0 0 -31 315 0zm0 40l0 32 -315 0 0 -32 315 0zm0 41l0 32 -315 0 0 -32 315 0zm0 41l0 31 -315 0 0 -31 315 0zm0 40l0 32 -315 0 0 -32 315 0zm0 41l0 32 -315 0 0 -32 315 0zm0 41l0 31 -315 0 0 -31 315 0zm0 40l0 32 -315 0 0 -32 315 0zm0 41l0 31 -315 0 0 -31 315 0zm0 40l0 32 -315 0 0 -32 315 0zm0 41l0 32 -315 0 0 -32 315 0zm0 41l0 31 -315 0 0 -31 315 0zm0 40l0 32 -315 0 0 -32 315 0zm0 41l0 32 -315 0 0 -32 315 0zm0 41l0 31 -315 0 0 -31 315 0z"/>
   <path class="fil11" d="M11376 941l0 32 -315 0 0 -32 315 0zm0 -244l0 32 -315 0 0 -32 315 0zm0 41l0 31 -315 0 0 -31 315 0zm0 40l0 32 -315 0 0 -32 315 0zm0 41l0 32 -315 0 0 -32 315 0zm0 41l0 31 -315 0 0 -31 315 0zm0 40l0 32 -315 0 0 -32 315 0z"/>
   <path class="fil12" d="M11834 1307l0 31 -315 0 0 -31 315 0zm0 -610l0 32 -315 0 0 -32 315 0zm0 41l0 31 -315 0 0 -31 315 0zm0 40l0 32 -315 0 0 -32 315 0zm0 41l0 32 -315 0 0 -32 315 0zm0 41l0 31 -315 0 0 -31 315 0zm0 40l0 32 -315 0 0 -32 315 0zm0 41l0 32 -315 0 0 -32 315 0zm0 41l0 31 -315 0 0 -31 315 0zm0 40l0 32 -315 0 0 -32 315 0zm0 41l0 31 -315 0 0 -31 315 0zm0 40l0 32 -315 0 0 -32 315 0zm0 41l0 32 -315 0 0 -32 315 0zm0 41l0 31 -315 0 0 -31 315 0zm0 40l0 32 -315 0 0 -32 315 0zm0 41l0 32 -315 0 0 -32 315 0z"/>
   <path class="fil2" d="M12949 1948l1629 -1110c26,-17 57,-23 86,-17 29,5 55,22 73,48l401 589 1 1c17,26 23,56 17,85 -5,28 -20,54 -45,71l0 1 -2 1 -1630 1110c-26,17 -56,23 -85,18 -29,-6 -56,-22 -74,-48l-399 -588 0 0 -2 -2c-18,-26 -23,-57 -18,-86 5,-28 21,-54 45,-71l0 0 3 -2zm366 -178l465 681 1293 -880 2 -2c13,-9 21,-22 24,-36 2,-13 0,-28 -8,-41l-1 0 -402 -590c-8,-13 -21,-21 -35,-23 -14,-3 -29,0 -42,8l-1296 883zm416 714l-464 -681 -282 192 0 0 -3 1c-12,9 -20,22 -23,36 -3,14 0,28 8,41l0 1 402 589c9,13 22,21 36,24 14,2 29,0 41,-9l285 -194z"/>
   <path class="fil13" d="M20139 3183c-49,361 -134,717 -252,1061 -595,1730 -1978,3048 -3546,3922 -1889,1053 -4115,1524 -6266,1524 -2151,0 -4377,-471 -6266,-1524 -1568,-874 -2951,-2192 -3546,-3922 -118,-344 -203,-700 -252,-1061l-11 -82 23 -80c59,-203 325,-477 484,-625 404,-374 856,-688 1304,-1006 684,-486 1980,-1390 2820,-1390 3629,0 7259,0 10888,0 840,0 2136,904 2820,1390 448,318 900,632 1304,1006 159,148 425,422 484,625l23 80 -11 82zm-10064 6312c2116,0 4312,-464 6171,-1499 1525,-851 2877,-2132 3456,-3815 116,-338 198,-685 245,-1039 21,-158 -334,-507 -437,-602 -389,-361 -852,-684 -1284,-991 -624,-443 -1927,-1354 -2707,-1354 -3629,0 -7259,0 -10888,0 -780,0 -2083,911 -2707,1354 -432,307 -895,630 -1284,991 -103,95 -458,444 -437,602 47,354 129,701 245,1039 579,1683 1931,2964 3456,3815 1859,1035 4055,1499 6171,1499z"/>
   <rect class="fil1 str1" x="9524" y="6511" width="1102" height="1626" rx="91" ry="91"/>
   <path class="fil14" d="M6912 1357c-17,-6 -33,-9 -48,-9 -37,0 -71,18 -71,60 0,33 24,52 51,66 51,25 121,43 121,112 0,33 -13,58 -39,75 -25,18 -58,26 -99,26 -26,0 -55,-4 -87,-13l-2 -3 13 -83 11 -2 17 70c18,7 36,10 54,10 24,0 43,-5 57,-16 14,-10 21,-26 21,-46 0,-45 -45,-63 -80,-79 -48,-20 -92,-43 -92,-102 0,-70 72,-94 130,-94 26,0 53,3 82,9l1 1 -14 78 -10 1 -16 -61zm-1843 41l2 -26c6,1 11,2 17,2 5,0 10,-1 13,-4 5,-3 10,-9 15,-19l9 -15 -27 -163 27 0 12 82c3,16 5,32 6,48l73 -130 28 0 -103 184c-10,17 -19,29 -26,35 -8,6 -17,9 -27,9 -6,0 -13,-1 -19,-3zm-163 -63l47 -223 27 0 -16 80c8,-8 16,-14 23,-17 7,-4 14,-5 21,-5 15,0 27,5 37,17 10,11 15,27 15,49 0,14 -2,27 -6,39 -4,12 -9,22 -15,30 -6,8 -12,14 -18,19 -6,5 -13,9 -19,11 -7,3 -13,4 -19,4 -10,0 -20,-3 -28,-9 -7,-5 -14,-14 -18,-25l-7 30 -24 0zm41 -66l0 5c0,14 3,24 9,31 7,8 15,11 24,11 10,0 18,-3 26,-10 8,-7 14,-17 19,-32 6,-14 8,-27 8,-39 0,-14 -3,-24 -10,-32 -6,-7 -14,-11 -23,-11 -10,0 -19,4 -27,11 -8,8 -15,20 -20,36 -4,12 -6,22 -6,30zm2214 216c5,0 10,1 15,1 12,0 21,-3 27,-9 6,-6 9,-15 9,-27 0,-12 -3,-21 -9,-27 -6,-5 -15,-8 -27,-8 -5,0 -10,0 -15,1l0 69zm0 40c0,4 0,8 0,11 0,4 1,7 1,10 0,1 1,2 2,3l15 4 1 5c-11,0 -20,0 -29,0 -9,0 -18,0 -27,0l0 -5 13 -3c2,-1 3,-2 3,-4 0,-3 0,-6 0,-10 0,-3 0,-7 0,-11l0 -88c0,-4 0,-7 0,-10 0,-3 0,-6 0,-8 0,-2 -1,-3 -3,-4l-13 -4 0 -5c9,1 18,1 27,1 6,0 12,0 17,-1 6,0 11,0 16,0 17,0 29,3 38,10 9,6 13,16 13,30 0,15 -5,27 -15,36 -10,9 -24,13 -42,13 -6,0 -11,-1 -17,-1l0 31zm138 -1c0,5 0,9 0,12 0,4 0,7 0,10 0,2 1,3 3,4l12 3 0 5c-8,0 -17,0 -25,0 -9,0 -18,0 -27,0l-1 -5 14 -3c1,-1 2,-2 2,-4 0,-3 1,-6 1,-10 0,-3 0,-7 0,-11l0 -88c0,-4 0,-7 0,-10 0,-3 -1,-6 -1,-8 0,-2 0,-3 -2,-4l-14 -4 0 -5c10,1 19,1 28,1 1,0 4,0 6,0 3,0 6,-1 10,-1 4,0 7,0 10,0 3,0 5,0 6,0 17,0 29,3 38,9 8,6 12,15 12,27 0,11 -3,20 -9,26 -5,7 -14,12 -26,16 5,7 9,13 13,20 4,6 8,12 11,18 3,5 6,10 9,14 3,4 5,7 8,10 1,1 2,2 4,3 1,1 2,2 3,2 2,1 3,1 4,2 2,0 4,0 5,1l1 5c-6,0 -10,1 -13,1 -3,0 -6,0 -8,-1 -2,0 -4,0 -6,0 -2,-1 -4,-1 -5,-2 -1,-1 -3,-2 -4,-3 -3,-2 -6,-5 -9,-9 -3,-5 -6,-9 -9,-15 -3,-5 -6,-11 -10,-17 -3,-6 -7,-12 -10,-18 -1,-1 -2,-3 -3,-4 -1,-1 -2,-2 -3,-2 -1,-1 -2,-1 -3,-1 -1,-1 -3,-1 -5,-1l-7 0 0 37zm0 -45c4,0 8,0 12,0 13,0 22,-2 28,-8 5,-5 8,-13 8,-25 0,-10 -2,-18 -8,-24 -6,-5 -14,-7 -26,-7 -2,0 -4,0 -7,0 -2,0 -4,1 -7,1l0 63zm133 1c0,24 5,42 14,54 9,13 23,19 42,19 18,0 31,-6 40,-17 8,-11 13,-29 13,-53 0,-23 -5,-41 -14,-53 -9,-12 -23,-18 -42,-18 -19,0 -32,5 -41,17 -8,11 -12,28 -12,51zm132 -1c0,25 -7,45 -21,60 -14,15 -34,23 -59,23 -24,0 -43,-7 -56,-21 -13,-14 -20,-33 -20,-57 0,-25 7,-45 21,-60 15,-14 34,-21 59,-21 25,0 43,7 57,20 13,14 19,32 19,56zm-476 -110l512 0 0 -19 -512 0 0 19zm0 246l512 0 0 -19 -512 0 0 19zm0 -461l512 0 0 -19 -512 0 0 19zm227 -159l285 0 0 -19 -285 0 0 19zm0 79l285 0 0 -18 -285 0 0 18zm0 -159l285 0 0 -18 -285 0 0 18zm-217 -18l168 0 0 177 -178 0 0 -177 10 0zm0 0l0 0zm149 18l-140 0 0 141 140 0 0 -141zm-228 -92l0 353 19 0 0 -334 611 0 0 367 -2355 0 0 19 2374 0 0 -405 -649 0zm649 445l-2374 0 0 19 2355 0 0 384 -611 0 0 -352 -19 0 0 371 649 0 0 -422zm-703 -287c0,104 -62,173 -167,173 -102,0 -158,-64 -158,-163 0,-104 62,-168 167,-168 100,0 158,59 158,158zm0 0l0 0zm-276 3c0,78 27,151 117,151 90,0 110,-69 110,-146 0,-80 -26,-148 -117,-148 -89,0 -110,65 -110,143zm0 0l0 0zm-340 -90l0 182c0,17 1,32 1,44 0,4 2,6 5,8l28 7 0 10c-19,0 -34,0 -47,0 -11,0 -27,0 -46,0l-1 -9 28 -8c4,-2 6,-4 6,-7 0,-12 0,-28 0,-45l0 -182c0,-15 0,-28 0,-38 0,-4 -2,-6 -5,-7l-28 -9 -1 -10c20,1 35,1 46,1 7,0 14,0 20,-1l190 236 0 -174c0,-14 -1,-27 -1,-37 0,-3 -2,-6 -6,-7l-27 -8 0 -10c19,1 35,1 47,1 12,0 27,0 46,-1l1 10 -29 9c-3,1 -5,3 -5,7 0,10 0,23 0,38l0 251 -19 2 -203 -253zm0 0l0 0zm-133 182c0,9 0,17 0,24 1,8 1,15 1,21 0,3 3,5 8,7l25 8 1 9c-20,0 -38,0 -56,0 -18,0 -36,0 -56,0l-1 -9 28 -8c4,-2 6,-4 6,-7 0,-6 0,-13 0,-21 1,-7 1,-15 1,-24l0 -182c0,-13 0,-25 -1,-38 0,-4 -2,-6 -5,-7l-28 -9 -1 -10c20,1 38,1 56,1 18,0 37,0 56,-1l1 10 -28 8c-4,1 -5,4 -6,7 -1,13 -1,25 -1,37l0 184zm0 0l0 0zm-157 -225c-15,-5 -30,-8 -43,-8 -34,0 -65,16 -65,54 0,42 42,59 74,73 41,18 83,38 83,89 0,70 -67,92 -126,92 -24,0 -50,-4 -79,-12l-2 -2 12 -76 10 -2 16 64c16,6 32,9 48,9 37,0 71,-14 71,-56 0,-31 -21,-46 -45,-59 -50,-24 -111,-40 -111,-107 0,-63 65,-85 118,-85 24,0 49,3 75,8l1 2 -13 70 -9 2 -15 -56zm0 0l0 0zm-390 157l92 0 -43 -123 -49 123zm0 0l0 0zm72 -182l99 274c4,11 8,18 11,22 2,3 7,6 13,7l21 7 0 9c-19,0 -37,0 -55,0 -17,0 -37,0 -60,0l0 -9 21 -7c3,-1 5,-1 6,-3 2,-1 2,-3 2,-5 0,-4 -1,-8 -2,-13 -2,-5 -4,-11 -7,-19l-21 -60 -108 0 -24 60c-3,8 -6,15 -8,20 -1,5 -2,9 -2,12 0,2 1,4 2,5 2,2 3,2 6,3l21 6 1 10c-22,0 -39,0 -52,0 -14,0 -29,0 -46,0l-1 -9 23 -7c6,-2 10,-4 12,-8 3,-4 6,-10 10,-18l115 -274 23 -3zm0 0l0 0zm-204 83l-9 1 -17 -59c-18,-5 -35,-7 -51,-7 -36,0 -65,13 -86,38 -21,26 -31,59 -31,100 0,44 12,79 36,105 23,26 57,39 99,39 24,0 49,-4 76,-14l2 11c-29,20 -63,31 -100,31 -49,0 -88,-16 -118,-45 -30,-29 -44,-68 -44,-117 0,-51 16,-92 49,-122 32,-30 75,-45 128,-45 25,0 51,3 78,9l1 2 -13 73zm1375 448l0 0zm-404 -22l61 0c36,0 75,0 116,0l2 1 -14 77 -10 1 -16 -57 -114 0 0 137 23 0c17,0 36,-1 57,-1 4,-1 7,-2 8,-7l9 -33 13 0c0,23 0,40 0,51 0,11 0,27 0,50l-13 1 -9 -34c-1,-4 -4,-6 -7,-6 -22,-1 -41,-1 -58,-1l-23 0 0 90c0,18 0,37 1,54l118 0 30 -63 12 -2 -6 87 -2 2c-42,-1 -82,-2 -118,-2l-58 0c-20,0 -41,1 -62,1l-1 -11 31 -9c4,-1 6,-3 6,-7 0,-7 0,-14 0,-23 1,-7 1,-17 1,-26l0 -201c0,-9 0,-16 -1,-23 0,-6 0,-13 0,-18 0,-4 -2,-7 -6,-8l-30 -10 -1 -10c21,0 42,0 61,0zm0 0l0 0zm-201 0c15,0 29,0 42,0 12,0 28,0 49,0l1 10 -31 10c-4,1 -6,4 -6,8 0,11 -1,24 -1,41l0 201c0,19 1,35 1,49 0,3 3,6 7,7l30 9 0 11c-22,-1 -42,-1 -63,-1 -19,0 -38,0 -57,1l-1 -11 28 -8c4,-1 6,-4 6,-9 1,-13 1,-29 1,-48l0 -215 -123 290 -17 3 -124 -293 0 215c0,19 0,35 1,48 0,5 2,8 6,9l28 8 1 11c-20,-1 -36,-1 -50,-1 -13,0 -30,0 -51,1l-1 -11 30 -9c4,-1 7,-4 7,-7 0,-14 0,-30 0,-49l0 -201c0,-17 0,-30 0,-41 0,-4 -2,-7 -6,-8l-30 -10 -1 -10c21,0 38,0 50,0 14,0 29,0 45,0l114 270 115 -270zm0 0l0 0zm-576 195l102 0 -49 -136 -53 136zm0 0l0 0zm79 -201l110 302c5,15 9,27 25,33l23 6 1 11c-22,-1 -42,-1 -60,-1 -19,0 -41,0 -67,1l0 -11 23 -6c12,-5 10,-13 7,-24 -3,-5 -5,-12 -8,-21l-23 -66 -119 0 -26 65c-3,10 -6,17 -8,23 -2,5 -3,9 -3,13 0,2 1,4 2,6 2,1 4,3 7,3l23 7 1 11c-24,-1 -43,-1 -58,-1 -15,0 -31,0 -49,1l-2 -11 25 -7c7,-2 11,-5 14,-9 3,-4 6,-11 10,-20l126 -301 26 -4zm0 0l0 0zm-248 92l-10 1 -17 -64c-20,-6 -39,-9 -56,-9 -42,0 -74,15 -97,42 -23,28 -35,67 -35,116 0,49 13,89 38,118 25,29 59,44 101,44 15,0 29,-2 42,-5l0 -66c0,-9 0,-16 0,-23 0,-6 0,-13 0,-18 0,-5 -2,-7 -6,-8l-30 -11 -1 -10c21,0 42,1 62,1 19,0 39,-1 57,-1l1 10 -27 9c-4,1 -6,3 -7,7 0,7 0,13 0,21 0,7 0,14 0,21l0 80 -1 1c-34,9 -65,13 -93,13 -58,0 -104,-16 -138,-46 -34,-31 -51,-74 -51,-129 0,-58 17,-104 53,-137 35,-33 84,-49 145,-49 27,0 55,3 84,10l1 2 -15 80z"/>
  </g>
 </g>
</svg>
